<?xml version="1.0" standalone="no"?>
<!DOCTYPE svg PUBLIC "-//W3C//DTD SVG 20010904//EN"
 "http://www.w3.org/TR/2001/REC-SVG-20010904/DTD/svg10.dtd">
<svg version="1.0" xmlns="http://www.w3.org/2000/svg"
 width="768.000000pt" height="1024.000000pt" viewBox="0 0 768.000000 1024.000000"
 preserveAspectRatio="xMidYMid meet">
<metadata>
Created by potrace 1.16, written by Peter Selinger 2001-2019
</metadata>
<g transform="translate(0.000000,1024.000000) scale(0.100000,-0.100000)"
fill="#000000" stroke="none">
<path d="M4885 7590 c-146 -29 -300 -90 -469 -185 l-65 -36 -103 23 c-90 20
-129 23 -318 22 -240 0 -323 -12 -527 -79 l-107 -35 -100 44 c-127 57 -225 88
-357 116 -123 25 -317 33 -341 12 -21 -17 -38 -138 -38 -260 1 -195 39 -389
117 -580 l33 -84 -24 -78 c-29 -90 -50 -273 -41 -342 l7 -47 -34 -5 c-166 -26
-233 -38 -237 -42 -15 -14 22 -14 127 2 66 9 126 15 134 11 9 -3 18 -24 22
-49 4 -24 17 -67 31 -96 17 -36 20 -52 11 -52 -6 0 -21 -7 -32 -16 -18 -15
-17 -15 16 -11 34 5 37 2 80 -62 25 -36 46 -70 48 -76 1 -5 -26 -25 -60 -43
-67 -36 -141 -91 -121 -92 6 0 48 22 93 50 116 70 112 70 178 13 78 -67 137
-106 225 -149 l75 -36 -45 -71 c-24 -40 -96 -153 -160 -252 -136 -212 -159
-257 -203 -390 -18 -55 -46 -117 -62 -137 -15 -21 -41 -55 -56 -75 -139 -186
-222 -430 -222 -655 0 -121 11 -192 47 -303 54 -168 141 -312 267 -443 82 -86
121 -109 208 -121 35 -5 76 -14 91 -20 16 -6 53 -11 83 -11 30 0 54 -4 54 -9
0 -4 18 -21 40 -36 63 -43 246 -61 395 -38 92 14 134 32 172 77 32 36 33 36
112 36 l80 0 44 -43 c43 -43 100 -67 161 -67 14 0 46 -5 70 -12 35 -9 66 -9
143 1 123 16 151 25 202 62 26 19 53 29 75 29 19 0 47 5 61 10 15 6 59 15 98
21 84 13 114 29 182 98 l49 51 67 0 c85 0 215 23 321 56 165 52 298 135 419
261 163 170 235 346 246 598 7 163 -5 257 -63 483 -36 140 -45 196 -46 267 -1
102 10 134 65 182 28 24 47 31 102 37 79 8 111 22 152 70 78 88 41 226 -78
291 -46 25 -64 29 -129 28 -92 -1 -162 -26 -246 -87 -71 -51 -110 -98 -153
-182 -79 -156 -78 -273 4 -601 70 -282 79 -336 72 -452 -11 -216 -112 -389
-293 -510 -49 -32 -158 -71 -200 -71 l-23 0 19 56 c51 147 64 336 34 481 -34
168 -98 308 -219 483 -48 70 -53 82 -68 178 -21 133 -54 210 -189 439 -60 103
-125 216 -144 250 l-34 63 63 31 c81 41 189 111 251 162 48 40 155 159 174
193 9 16 14 16 83 -10 104 -38 109 -40 109 -28 0 5 -36 24 -80 42 -44 18 -80
36 -80 40 0 5 13 37 30 72 16 34 30 71 30 82 0 15 5 17 31 12 22 -4 29 -2 27
7 -3 6 -15 13 -27 15 -18 3 -22 8 -16 25 3 12 9 61 12 110 l6 87 71 2 c39 2
93 2 119 1 32 0 47 3 44 11 -3 7 -41 11 -120 10 -65 -1 -117 1 -117 5 -1 74
-55 261 -101 353 -30 59 -30 60 -15 106 53 161 74 518 41 707 -22 125 -22 125
-103 124 -37 0 -107 -9 -157 -19z m215 -76 c18 -85 27 -304 19 -432 -7 -92
-41 -276 -55 -291 -1 -2 -14 9 -27 25 -16 18 -29 25 -40 21 -15 -6 -13 -13 17
-59 86 -136 152 -311 158 -420 l3 -52 -109 -13 c-128 -15 -301 -53 -430 -93
-116 -36 -126 -40 -126 -52 0 -6 8 -8 18 -5 193 62 425 114 591 132 l64 7 -6
-92 c-3 -51 -10 -97 -15 -102 -6 -6 -49 -5 -113 3 -106 12 -500 7 -547 -7 -47
-14 0 -20 95 -11 160 14 527 -4 550 -26 9 -9 -47 -147 -61 -153 -7 -3 -71 11
-142 31 -160 44 -335 75 -422 75 -86 -1 -63 -15 38 -24 150 -13 500 -97 500
-120 -1 -18 -101 -132 -165 -187 -106 -89 -257 -171 -420 -227 -475 -163
-1033 -137 -1440 65 -49 25 -106 57 -126 72 -43 31 -119 99 -119 106 0 19 273
132 435 179 39 12 70 25 70 31 0 5 -9 8 -20 7 -47 -8 -290 -94 -399 -142
l-119 -53 -18 24 c-10 13 -32 43 -49 67 l-31 42 23 9 c94 36 357 85 516 97 51
4 92 11 92 17 0 26 -323 -15 -535 -68 -59 -15 -108 -25 -109 -23 -7 10 -36 99
-45 135 l-9 43 35 6 c51 10 422 -2 526 -17 77 -10 110 -9 96 5 -2 3 -56 12
-119 21 -77 12 -186 18 -330 19 l-215 1 -3 70 c-6 147 34 328 105 469 26 51
32 71 23 80 -15 14 -49 -25 -57 -66 -3 -15 -9 -28 -13 -28 -13 0 -71 148 -96
246 -12 51 -28 141 -35 201 -13 123 -6 358 12 379 14 17 80 18 204 3 154 -18
340 -73 487 -143 l77 -37 126 41 c202 65 333 83 560 77 139 -4 216 -11 288
-27 l98 -21 57 35 c192 116 453 203 614 205 l57 1 11 -56z m-516 -2101 c4 -9
61 -108 127 -220 135 -229 191 -340 215 -428 21 -80 29 -289 15 -398 -34 -258
-176 -660 -368 -1041 l-45 -89 22 -47 c61 -130 -2 -253 -147 -284 l-31 -7 15
50 c17 61 14 116 -7 116 -11 0 -17 -16 -22 -57 -7 -59 -22 -97 -42 -110 -16
-11 -100 -10 -129 1 -32 12 -40 32 -46 116 -5 53 -10 70 -21 70 -19 0 -27
-124 -9 -156 11 -21 10 -22 -31 -16 -54 7 -113 46 -133 90 -34 72 -13 182 47
236 22 21 26 33 26 78 0 56 14 159 56 413 32 192 39 422 13 428 -14 2 -17 -16
-22 -135 -4 -76 -20 -219 -36 -318 -16 -99 -35 -234 -42 -300 -11 -111 -15
-123 -46 -164 -41 -54 -57 -111 -50 -173 l6 -48 -64 0 -65 0 0 60 c0 73 -16
114 -64 168 -28 31 -36 48 -36 78 0 22 -7 80 -14 129 -68 432 -76 496 -76 597
0 101 -1 108 -20 108 -19 0 -20 -7 -20 -117 0 -90 10 -177 40 -363 22 -135 43
-281 46 -325 6 -73 10 -83 39 -115 49 -52 65 -92 65 -158 0 -49 -5 -66 -29
-99 -29 -41 -89 -73 -135 -73 -23 0 -23 1 -10 38 23 65 15 146 -15 140 -13 -3
-15 -14 -13 -54 4 -62 -21 -130 -51 -138 -43 -11 -125 -6 -141 9 -13 13 -29
74 -39 140 -1 11 -9 20 -17 20 -12 0 -15 -12 -13 -57 1 -31 7 -67 13 -78 16
-30 9 -33 -45 -19 -34 9 -62 26 -96 58 -62 61 -73 116 -39 199 l23 56 -43 80
c-187 351 -283 575 -336 783 -60 237 -63 404 -13 593 31 115 63 178 202 400
177 281 210 330 219 330 5 0 59 -15 121 -34 181 -55 262 -67 487 -73 157 -4
234 -1 327 11 125 16 359 72 423 100 46 20 66 20 74 -1z m1578 -74 c44 -23 74
-59 89 -110 25 -82 -40 -169 -127 -169 -94 0 -165 -44 -206 -128 -34 -72 -31
-190 12 -352 66 -253 71 -282 77 -437 6 -162 -1 -226 -39 -343 -42 -130 -108
-240 -207 -343 -143 -151 -403 -265 -641 -283 l-91 -7 54 84 c30 46 67 109 82
140 27 55 28 56 89 68 104 21 233 90 307 164 113 111 167 211 195 355 29 150
16 262 -68 582 -48 182 -51 203 -51 315 0 99 3 130 21 179 86 233 331 372 504
285z m-3503 -931 c0 -187 47 -387 147 -633 45 -108 167 -359 206 -422 l20 -33
-35 0 c-40 0 -88 -30 -130 -82 -37 -47 -47 -116 -23 -172 9 -22 14 -41 12 -43
-12 -13 -89 40 -152 103 -146 147 -252 346 -290 542 -50 262 24 567 194 799
25 35 47 63 49 63 1 0 2 -55 2 -122z m2398 25 c64 -95 113 -201 149 -319 25
-80 28 -105 28 -244 1 -120 -3 -172 -18 -230 -26 -106 -88 -246 -154 -352 -89
-144 -238 -285 -269 -254 -3 3 0 13 8 22 9 11 14 41 14 79 0 55 -4 67 -35 108
-35 46 -81 77 -117 77 -44 1 -44 14 8 120 173 358 292 731 314 988 4 45 10 82
14 82 3 0 30 -35 58 -77z m-339 -1180 c63 -47 80 -133 39 -194 -26 -39 -54
-54 -114 -63 l-41 -6 5 73 c5 61 2 81 -16 121 -19 44 -20 50 -5 78 15 28 18
30 57 24 23 -4 57 -19 75 -33z m-1651 -4 c15 -25 15 -30 -2 -65 -18 -36 -23
-109 -13 -169 3 -18 -2 -20 -44 -18 -86 2 -138 56 -138 140 0 77 70 146 143
141 29 -2 42 -9 54 -29z M4869 7391 c-78 -34 -133 -68 -211 -129 -66 -51 -78
-92 -25 -83 16 3 96 -60 181 -143 52 -50 93 -83 101 -80 32 13 79 227 79 364
l1 95 -30 2 c-16 2 -60 -10 -96 -26z m91 -70 c0 -59 -32 -249 -50 -296 -9 -24
-11 -22 -71 40 -34 36 -87 84 -117 107 l-55 42 48 43 c48 44 195 123 228 123
14 0 17 -9 17 -59z M2626 7262 c-17 -54 37 -288 90 -394 35 -69 49 -65 122 33
43 57 142 155 176 174 34 19 10 49 -82 101 -118 68 -185 95 -247 101 -47 5
-54 3 -59 -15z m128 -39 c34 -11 173 -84 214 -111 10 -7 -5 -27 -58 -78 -40
-38 -88 -90 -107 -116 -19 -27 -38 -48 -43 -48 -19 0 -99 283 -100 353 0 30 8
30 94 0z M4312 6453 c-40 -20 -62 -59 -62 -113 0 -59 49 -110 110 -117 139
-14 191 180 64 233 -43 18 -71 17 -112 -3z m46 -54 c3 -17 -23 -33 -39 -23 -5
3 -9 14 -9 25 0 15 6 20 22 17 13 -2 24 -10 26 -19z M3279 6372 c-42 -38 -51
-105 -20 -155 63 -103 221 -58 221 63 0 101 -126 159 -201 92z m69 -36 c4 -21
-14 -37 -35 -29 -14 5 -18 35 -6 47 12 12 38 1 41 -18z M3835 6215 c-5 -2 -27
-6 -48 -10 -23 -4 -43 -15 -53 -30 -14 -21 -14 -27 -1 -52 19 -36 62 -76 106
-98 31 -16 33 -19 28 -56 -7 -53 -31 -88 -74 -106 -61 -25 -126 1 -146 60 -8
21 -26 22 -33 3 -8 -22 23 -74 55 -91 64 -33 131 -24 181 24 l41 38 29 -27
c52 -49 144 -48 196 1 29 28 50 87 36 101 -14 14 -32 1 -32 -23 0 -35 -53 -79
-96 -79 -71 0 -124 51 -124 120 0 23 7 32 33 45 41 20 89 87 91 128 1 24 -5
34 -24 44 -22 11 -138 17 -165 8z m145 -40 c19 -12 10 -36 -31 -80 -49 -53
-78 -57 -129 -20 -31 23 -59 59 -60 77 0 8 60 26 100 31 37 4 109 -1 120 -8z"/>
</g>
</svg>
