<?xml version="1.0" standalone="no"?>
<!DOCTYPE svg PUBLIC "-//W3C//DTD SVG 20010904//EN"
 "http://www.w3.org/TR/2001/REC-SVG-20010904/DTD/svg10.dtd">
<svg version="1.0" xmlns="http://www.w3.org/2000/svg"
 width="768.000000pt" height="1024.000000pt" viewBox="0 0 768.000000 1024.000000"
 preserveAspectRatio="xMidYMid meet">
<metadata>
Created by potrace 1.16, written by Peter Selinger 2001-2019
</metadata>
<g transform="translate(0.000000,1024.000000) scale(0.100000,-0.100000)"
fill="#000000" stroke="none">
<path d="M3400 8531 c-149 -46 -248 -178 -291 -392 -18 -89 -20 -125 -16 -249
4 -80 9 -159 13 -176 l6 -31 -66 -6 c-95 -9 -209 -59 -274 -121 -156 -147
-172 -400 -37 -587 l34 -47 -92 -58 c-292 -185 -400 -412 -299 -628 55 -117
187 -234 344 -305 l61 -28 -56 -26 c-128 -58 -240 -157 -280 -245 -24 -56 -34
-170 -18 -228 31 -117 162 -246 341 -337 58 -30 111 -56 119 -59 12 -4 12 -11
-3 -49 -12 -30 -17 -63 -14 -108 4 -92 -9 -97 -103 -39 -162 98 -325 136 -447
104 -128 -33 -202 -117 -243 -276 -21 -84 -17 -293 10 -417 11 -55 21 -103 21
-106 0 -3 -40 13 -90 35 -204 90 -360 49 -420 -109 -18 -49 -21 -73 -17 -148
2 -49 6 -97 8 -105 3 -12 -6 -14 -53 -11 -31 1 -80 8 -109 14 l-52 12 -38 147
c-55 216 -100 297 -191 342 -90 45 -180 27 -247 -49 -43 -50 -56 -83 -71 -178
-37 -248 88 -591 321 -882 362 -451 889 -705 1557 -751 56 -3 105 -11 108 -15
3 -5 5 -58 5 -118 -1 -208 47 -279 234 -347 106 -39 227 -56 437 -61 161 -5
210 -3 265 11 38 9 103 22 147 30 95 18 144 42 174 86 43 64 23 181 -49 281
-12 17 -20 32 -18 34 2 2 49 8 104 15 177 20 366 75 517 151 43 22 79 39 82
39 2 0 13 -30 25 -68 26 -86 93 -191 152 -236 52 -41 131 -75 245 -107 112
-30 370 -38 504 -15 175 31 363 106 446 179 74 65 108 159 86 239 -7 27 -7 47
4 75 7 21 13 72 14 114 0 63 -4 82 -23 110 -18 27 -30 35 -60 37 -31 3 -39 8
-51 35 -23 55 -51 72 -115 71 -62 -1 -138 -31 -200 -78 -19 -14 -36 -24 -38
-22 -3 2 6 51 18 108 18 78 23 135 23 233 0 150 -17 232 -69 341 -34 71 -125
184 -177 220 -34 23 -35 31 -4 45 19 9 29 7 50 -6 52 -34 150 15 182 92 19 44
18 167 -2 234 -58 198 -237 399 -478 537 -48 28 -101 54 -116 57 -25 6 -32 19
-84 163 -59 164 -81 247 -91 347 -10 88 1 107 71 129 278 86 732 281 964 414
300 172 479 359 554 580 13 38 40 91 60 119 77 108 116 232 123 401 7 146 -6
236 -53 380 -42 129 -86 213 -169 323 -113 151 -265 274 -450 367 -235 117
-742 229 -1161 258 l-100 7 -28 53 c-36 69 -111 145 -173 175 -41 20 -63 24
-148 24 -85 0 -106 -4 -144 -24 -62 -32 -136 -105 -178 -173 -20 -32 -39 -58
-42 -58 -3 0 -11 8 -18 18 -20 33 -190 169 -265 213 -103 60 -200 89 -296 88
-42 0 -88 -4 -102 -8z m282 -100 c43 -18 106 -51 140 -73 63 -41 218 -187 218
-205 0 -6 -30 -18 -67 -28 -109 -30 -288 -101 -368 -146 -156 -89 -341 -281
-436 -452 -89 -162 -168 -371 -204 -542 -24 -114 -20 -108 -50 -93 -38 20
-123 107 -150 153 -56 94 -68 236 -30 345 46 135 197 220 387 220 48 0 88 1
88 3 0 1 -9 34 -21 72 -26 88 -37 310 -20 410 34 192 108 310 226 359 66 27
192 17 287 -23z m827 -22 c27 -6 68 -24 90 -40 40 -29 110 -114 111 -135 0 -6
-65 -15 -172 -23 -95 -6 -220 -19 -276 -27 -57 -8 -107 -14 -112 -12 -14 5 29
85 72 133 48 54 110 93 169 104 61 12 62 12 118 0z m561 -275 c394 -47 786
-147 1001 -255 288 -144 505 -428 571 -748 38 -183 13 -426 -57 -562 -27 -51
-114 -138 -185 -184 -202 -131 -534 -215 -850 -215 -274 0 -504 80 -663 229
-60 57 -61 58 -48 89 29 70 -21 87 -57 20 -12 -24 -38 -54 -57 -67 -58 -39
-37 -78 26 -47 l32 16 51 -48 c156 -147 379 -237 636 -257 109 -8 335 10 463
36 179 37 446 140 508 195 48 43 20 -27 -52 -132 -66 -95 -183 -205 -301 -284
-111 -73 -478 -256 -673 -335 -294 -119 -506 -187 -740 -236 -94 -20 -138 -24
-310 -23 -173 0 -221 4 -351 27 -335 60 -502 131 -659 279 -140 132 -223 269
-291 476 -176 536 -17 1253 368 1658 194 204 529 327 1018 373 234 23 403 21
620 -5z m-2155 -1318 c20 -6 20 -10 12 -99 -21 -226 16 -509 94 -703 16 -41
29 -79 29 -84 0 -31 -214 21 -332 80 -207 103 -316 249 -305 406 11 152 140
304 349 414 l72 38 30 -23 c17 -12 40 -25 51 -29z m150 -966 c30 0 36 -6 78
-77 l45 -78 11 -142 c12 -161 2 -312 -29 -452 -25 -114 -27 -119 -61 -136 -15
-8 -58 -37 -94 -65 -36 -27 -69 -50 -72 -50 -16 0 7 104 30 136 14 20 23 42
21 49 -3 6 -41 24 -85 40 -149 52 -310 167 -375 268 -32 49 -54 137 -47 184
15 98 97 197 216 259 114 60 170 75 256 69 41 -3 88 -5 106 -5z m248 -271 c89
-89 312 -210 450 -244 69 -18 -3 -75 -194 -154 -85 -35 -196 -84 -248 -108
-52 -24 -95 -42 -97 -41 -1 2 7 46 19 98 18 79 21 128 22 292 0 109 2 198 4
198 2 0 22 -18 44 -41z m1580 -341 c5 -80 43 -239 81 -338 5 -13 -11 -15 -116
-15 -120 0 -207 -17 -246 -48 -28 -22 7 -25 68 -5 47 15 93 21 165 22 113 1
150 -6 160 -31 13 -32 105 -306 105 -313 0 -4 -23 -1 -52 6 -68 18 -245 18
-328 0 -122 -26 -210 -69 -188 -91 2 -2 38 9 79 24 40 16 109 35 151 41 87 14
239 9 308 -10 l45 -13 23 -95 c12 -52 21 -96 20 -98 -2 -1 -28 2 -58 8 -111
21 -339 -10 -432 -58 -28 -14 -31 -14 -73 14 -25 16 -75 45 -112 63 -77 38
-147 103 -193 178 -51 82 -94 57 -49 -28 39 -74 134 -163 219 -206 107 -54
155 -89 190 -140 16 -24 30 -46 30 -48 0 -2 -18 -7 -39 -11 -51 -8 -120 -61
-150 -115 -19 -35 -25 -63 -29 -140 -2 -53 -9 -104 -14 -113 -25 -49 -96 2
-163 117 -22 37 -48 71 -58 77 -10 5 -77 29 -149 53 -233 78 -318 165 -336
347 -6 65 -9 73 -29 76 -66 9 -29 -206 53 -308 69 -86 152 -134 324 -185 89
-26 108 -36 123 -61 103 -166 115 -179 180 -194 66 -15 126 35 128 107 0 15 4
36 8 46 6 18 8 18 21 2 18 -22 64 -45 90 -45 35 0 79 32 98 71 l17 36 130 6
c95 4 155 12 225 31 133 37 124 38 131 -14 15 -96 21 -251 15 -332 l-7 -84
-94 -37 c-328 -129 -720 -129 -1107 0 l-107 36 -35 56 c-42 68 -139 170 -223
234 -309 236 -711 230 -960 -13 -66 -65 -134 -166 -157 -233 -19 -58 -20 -67
-3 -67 8 0 31 34 52 76 47 93 152 208 233 256 169 101 371 119 572 52 259 -87
477 -317 561 -594 29 -97 32 -262 6 -360 -22 -83 -114 -269 -168 -339 -47 -62
-45 -72 14 -106 21 -11 58 -40 85 -64 l47 -44 -44 -8 c-55 -11 -87 -40 -108
-99 l-16 -46 -36 39 c-42 46 -101 76 -151 77 -37 0 -97 -31 -106 -54 -4 -10
-18 -12 -49 -8 -37 4 -47 1 -68 -21 -29 -28 -47 -84 -47 -146 l0 -44 -77 6
c-180 15 -342 90 -374 174 -5 13 -9 74 -9 134 0 149 -24 218 -134 393 -186
294 -250 478 -245 704 3 91 0 115 -11 122 -22 14 -28 12 -41 -12 -7 -13 -12
-68 -12 -137 1 -115 15 -204 48 -307 27 -80 128 -283 186 -374 71 -109 99
-156 99 -164 0 -11 -121 -7 -241 8 -491 61 -863 228 -1170 524 -241 232 -411
513 -463 764 -21 100 -21 271 -1 329 30 84 104 136 175 124 52 -9 112 -63 139
-125 22 -52 85 -290 78 -296 -7 -8 -106 52 -144 86 -21 20 -53 55 -71 78 -35
44 -56 52 -66 26 -9 -23 26 -83 76 -130 259 -249 747 -240 1119 22 154 108
280 244 416 449 179 269 293 391 498 532 49 34 220 117 355 172 263 109 288
121 350 181 l60 57 162 -24 c274 -41 513 -31 758 31 30 8 60 14 66 15 7 1 13
-33 17 -91z m-2353 -393 c57 -15 197 -82 239 -114 l25 -19 -39 -48 c-56 -69
-112 -145 -192 -265 -39 -58 -99 -140 -133 -182 -65 -81 -196 -207 -216 -207
-14 0 -69 193 -85 300 -6 42 -9 128 -7 195 9 209 63 308 188 346 42 12 162 10
220 -6z m2650 -205 c118 -60 254 -169 339 -272 67 -81 130 -198 138 -257 5
-36 4 -38 -26 -44 -17 -4 -51 -25 -75 -47 l-44 -40 -20 34 c-11 19 -32 42 -46
51 -36 24 -99 21 -136 -5 l-29 -21 -5 23 c-3 13 -17 80 -31 150 -14 70 -46
198 -70 283 -25 86 -45 158 -45 161 0 7 10 4 50 -16z m-11 -408 c5 -8 18 -71
30 -140 12 -70 25 -137 28 -149 4 -19 -3 -24 -64 -43 -85 -26 -237 -50 -324
-50 l-66 0 -5 88 c-6 95 -28 160 -73 214 -14 16 -23 33 -20 37 4 8 120 46 165
55 14 2 92 4 173 3 111 -2 150 -5 156 -15z m-3146 -156 c66 -34 97 -56 110
-78 18 -32 18 -32 -5 -50 -39 -30 -149 -84 -225 -111 -76 -28 -230 -60 -243
-52 -14 9 -32 143 -25 187 10 61 44 117 85 139 29 16 51 19 123 16 82 -3 93
-6 180 -51z m3399 -74 c27 -25 32 -36 32 -81 1 -76 -15 -82 -111 -40 -38 16
-43 22 -43 49 0 23 10 42 34 66 19 19 39 34 45 34 6 0 25 -13 43 -28z m248
-21 c0 -53 -44 -111 -85 -111 -22 0 -25 4 -25 34 0 24 9 43 29 65 34 36 81 43
81 12z m-968 -31 c13 -58 -1 -130 -30 -157 -41 -38 -63 -28 -107 51 -23 43
-25 52 -14 73 17 32 88 74 119 71 19 -2 26 -11 32 -38z m782 -255 c71 -69 124
-152 157 -245 21 -58 24 -83 24 -230 0 -148 -3 -177 -29 -280 -16 -63 -37
-137 -48 -164 -14 -37 -16 -51 -7 -62 6 -8 16 -14 21 -14 6 0 48 36 95 80 81
76 172 138 160 108 -24 -57 -38 -126 -34 -161 5 -40 4 -42 -63 -104 -52 -48
-78 -83 -113 -150 -44 -87 -97 -239 -97 -281 0 -30 -45 -36 -194 -28 -172 9
-329 49 -418 105 -70 44 -145 172 -162 276 l-7 40 73 52 c150 107 294 280 374
448 80 168 123 418 108 628 l-7 98 53 -28 c28 -15 80 -55 114 -88z m-250 -342
c-52 -243 -186 -465 -374 -624 -209 -176 -514 -295 -811 -316 -96 -6 -123 -2
-157 26 l-23 20 45 65 c54 79 106 188 132 276 14 50 19 96 19 200 -1 131 -2
138 -41 252 l-40 117 26 -6 c14 -3 40 -12 58 -20 68 -28 282 -74 397 -84 246
-23 517 14 696 95 72 33 81 33 73 -1z m746 -463 c23 -23 28 -105 9 -159 -11
-32 -28 -38 -78 -24 -22 6 -23 10 -19 67 4 67 32 136 54 136 8 0 23 -9 34 -20z
m128 -92 c13 -13 15 -107 4 -145 -7 -21 -7 -21 -41 7 l-34 29 12 48 c18 68 34
86 59 61z m-76 -185 c43 -25 47 -43 10 -43 -67 0 -177 -143 -223 -289 -16 -53
-18 -56 -68 -72 -28 -10 -71 -21 -96 -25 l-46 -6 7 28 c46 194 136 351 238
416 38 24 129 20 178 -9z m70 -137 c-5 -51 -18 -85 -45 -115 -30 -32 -95 -76
-141 -95 l-38 -16 7 28 c22 90 100 202 160 228 48 21 60 15 57 -30z m-2132
-281 c37 -19 50 -43 50 -94 0 -50 -24 -74 -88 -91 -26 -7 -56 -14 -66 -17 -18
-5 -19 -1 -13 70 7 102 27 138 80 146 4 0 21 -6 37 -14z m-288 -44 c30 -19 52
-44 67 -73 26 -55 26 -73 1 -98 -17 -17 -33 -20 -100 -20 -77 0 -80 1 -93 28
-35 69 -27 159 16 180 36 17 61 14 109 -17z m-222 -73 c6 -24 17 -58 25 -76 8
-18 15 -35 15 -37 0 -3 -20 -5 -44 -5 -52 0 -60 12 -50 79 13 89 37 106 54 39z
M6076 7698 c-20 -28 -20 -61 -1 -97 16 -32 33 -41 76 -41 66 0 94 86 44 135
-33 34 -97 35 -119 3z M5765 7547 c-43 -36 -41 -89 4 -129 27 -24 39 -29 64
-24 59 12 85 56 63 109 -26 64 -85 84 -131 44z M4135 7244 c-97 -50 -141 -162
-117 -295 25 -130 123 -264 236 -319 201 -99 379 45 337 272 -23 127 -130 271
-243 328 -71 35 -161 41 -213 14z m164 -109 c52 -26 57 -91 11 -137 -26 -25
-36 -29 -62 -24 -47 9 -78 43 -78 83 0 78 60 114 129 78z m31 -384 c19 -37
-16 -70 -54 -49 -19 11 -22 54 -3 61 26 11 47 6 57 -12z"/>
</g>
</svg>
