<?xml version="1.0" standalone="no"?>
<!DOCTYPE svg PUBLIC "-//W3C//DTD SVG 20010904//EN"
 "http://www.w3.org/TR/2001/REC-SVG-20010904/DTD/svg10.dtd">
<svg version="1.0" xmlns="http://www.w3.org/2000/svg"
 width="1024.000000pt" height="768.000000pt" viewBox="0 0 1024.000000 768.000000"
 preserveAspectRatio="xMidYMid meet">
<metadata>
Created by potrace 1.16, written by Peter Selinger 2001-2019
</metadata>
<g transform="translate(0.000000,768.000000) scale(0.100000,-0.100000)"
fill="#000000" stroke="none">
<path d="M1491 5882 c-56 -58 -144 -170 -160 -203 -26 -52 -8 -74 149 -192
266 -199 567 -419 1237 -901 136 -98 286 -207 333 -242 78 -57 559 -394 749
-524 82 -56 123 -68 129 -39 2 12 -43 49 -145 120 -157 109 -316 224 -798 574
-165 120 -381 277 -480 348 -535 386 -1010 734 -1077 790 l-41 35 83 101 c47
55 87 101 90 101 8 0 87 -62 336 -265 115 -94 274 -223 354 -287 141 -114 377
-305 531 -431 41 -34 169 -141 283 -237 114 -96 240 -202 279 -234 206 -170
356 -304 485 -431 124 -121 150 -152 192 -229 42 -78 47 -92 38 -117 l-10 -29
-94 0 -95 0 -132 103 c-256 200 -350 269 -535 391 -236 155 -473 293 -807 468
-223 117 -1031 518 -1044 518 -5 0 -14 -7 -21 -16 -11 -12 -11 -18 1 -29 8 -8
194 -104 414 -213 665 -331 705 -351 705 -367 0 -7 -13 -81 -29 -162 -71 -362
-66 -591 15 -720 41 -63 82 -107 141 -149 35 -25 63 -48 63 -52 0 -4 20 -148
44 -319 43 -299 67 -501 101 -863 36 -372 78 -514 190 -638 102 -111 228 -162
452 -183 99 -9 246 -9 653 1 605 15 1361 9 1730 -15 378 -23 728 -30 847 -16
203 24 320 70 425 170 135 127 164 227 208 731 35 389 66 646 112 928 l31 193
54 36 c29 19 76 61 104 92 103 115 135 238 125 472 -12 298 -105 909 -166
1088 -70 210 -265 363 -539 425 -68 16 -303 35 -428 36 l-52 0 -40 59 c-58 85
-122 136 -246 197 -247 119 -387 157 -511 136 -114 -19 -465 -135 -533 -176
-60 -37 -121 -98 -168 -167 l-24 -37 -787 -5 c-494 -3 -817 -10 -867 -17 -190
-26 -355 -86 -479 -175 -77 -55 -121 -102 -176 -189 l-42 -66 -53 43 c-52 41
-346 278 -632 510 -78 63 -183 149 -232 191 -156 131 -181 139 -240 78z m4495
-103 c120 -38 320 -137 373 -184 90 -81 164 -284 164 -445 0 -135 -53 -300
-91 -285 -48 19 -171 45 -213 45 l-48 0 28 63 c121 266 9 487 -297 583 -143
46 -279 26 -412 -61 -136 -88 -246 -204 -299 -315 -22 -48 -26 -68 -26 -155 0
-94 2 -105 33 -167 54 -110 144 -168 259 -168 50 0 53 -7 17 -41 -37 -34 -129
-175 -159 -242 -13 -32 -26 -57 -28 -57 -12 0 -128 51 -157 68 -42 26 -148
157 -190 234 -69 128 -100 347 -64 455 47 145 229 455 295 505 66 50 351 158
504 192 94 21 188 13 311 -25z m-139 -273 c101 -27 197 -81 256 -146 67 -72
81 -111 76 -212 -4 -63 -11 -87 -44 -153 -43 -85 -44 -86 -140 -98 l-50 -5 3
77 c7 144 -57 228 -249 327 -129 66 -393 28 -336 -50 11 -15 17 -15 72 5 116
41 245 6 365 -99 87 -76 110 -152 71 -238 -16 -34 -25 -43 -55 -48 -48 -9
-139 -50 -194 -88 -43 -30 -47 -30 -131 -26 -102 6 -143 22 -193 74 -53 54
-71 116 -66 219 6 109 38 176 132 273 162 168 323 231 483 188z m-897 -71 c0
-3 -14 -27 -30 -53 -28 -47 -33 -50 -83 -56 -28 -3 -146 -6 -262 -6 -334 0
-1040 -19 -1153 -30 -182 -19 -306 -70 -406 -168 -52 -51 -116 -157 -130 -214
-3 -16 -11 -28 -16 -28 -13 0 -130 100 -144 123 -17 27 27 101 114 188 113
115 260 182 480 221 36 6 196 14 355 18 355 8 1275 12 1275 5z m1951 -29 c115
-16 199 -41 299 -89 80 -39 206 -160 242 -232 74 -145 176 -776 185 -1140 5
-186 4 -204 -17 -265 -30 -92 -80 -163 -153 -217 -81 -60 -158 -95 -287 -128
-142 -37 -374 -44 -645 -21 -344 29 -504 36 -1000 42 -532 7 -960 -2 -1747
-38 -428 -19 -518 -20 -640 -10 -223 19 -359 58 -493 143 -164 104 -223 233
-211 462 8 136 63 477 80 494 2 3 42 -15 88 -39 96 -50 91 -33 68 -225 -20
-165 3 -265 86 -365 113 -135 265 -192 619 -234 347 -41 3293 -40 3505 1 109
21 248 67 302 101 101 62 180 164 212 273 21 71 21 234 0 411 -18 163 -69 508
-84 576 -19 82 -68 169 -129 227 -122 116 -252 162 -513 183 l-77 6 -15 46
c-9 25 -16 47 -16 49 0 9 249 1 341 -11z m-2082 -221 c-19 -49 -32 -103 -36
-154 l-6 -77 -44 40 c-66 61 -214 151 -304 186 -82 31 -193 58 -257 62 -35 2
266 11 549 16 l127 2 -29 -75z m-939 45 c-131 -28 -270 -81 -378 -145 -108
-63 -282 -256 -347 -385 -10 -19 -19 -37 -21 -39 -5 -5 -192 148 -197 162 -7
18 41 134 81 195 39 59 110 117 187 150 98 42 173 54 435 67 337 16 339 16
240 -5z m2983 -6 c156 -35 286 -124 342 -235 33 -64 49 -144 90 -444 65 -480
66 -555 8 -669 -28 -55 -114 -151 -154 -172 -58 -29 -130 -54 -123 -42 4 7 35
56 68 108 121 192 161 307 154 444 -6 114 -30 164 -131 279 -172 196 -280 294
-351 320 -12 5 -16 13 -11 25 20 54 26 116 16 174 -11 63 -60 179 -88 210 -15
17 -13 18 46 18 34 0 94 -7 134 -16z m-202 -99 c43 -88 56 -160 40 -229 l-12
-56 -72 6 c-40 4 -73 7 -74 8 -1 1 9 38 23 81 18 55 28 113 31 184 7 117 9
118 64 6z m-2503 35 c187 -20 326 -68 460 -159 94 -64 128 -104 163 -195 17
-44 46 -119 64 -166 34 -86 60 -240 53 -310 l-3 -34 -76 -12 c-41 -6 -101 -19
-131 -28 -31 -9 -60 -16 -66 -16 -5 0 -3 22 4 52 37 140 -8 287 -124 410 -77
81 -196 146 -317 173 -163 37 -354 7 -492 -77 -112 -68 -226 -211 -259 -326
-9 -29 -19 -52 -24 -50 -18 7 -209 174 -210 183 0 20 60 135 98 187 120 163
283 272 497 333 159 45 212 51 363 35z m2248 -371 c160 -71 201 -102 273 -210
69 -103 144 -253 162 -324 24 -96 -6 -237 -83 -395 -34 -68 -60 -103 -130
-173 -48 -48 -97 -91 -110 -96 -13 -5 -200 -6 -416 -3 l-392 5 0 56 c0 31 -7
85 -15 120 -9 35 -14 65 -12 67 2 2 21 -9 43 -25 144 -107 467 -106 622 1 53
37 125 134 153 208 16 39 22 77 22 133 0 67 -5 86 -32 142 -65 131 -209 211
-401 222 -161 9 -317 -46 -415 -145 -80 -81 -48 -123 38 -50 122 103 192 130
339 130 186 -1 316 -61 376 -176 39 -74 38 -177 -3 -261 -40 -83 -98 -142
-175 -179 -64 -30 -68 -31 -220 -31 -184 0 -239 15 -307 81 -47 47 -63 92 -63
174 0 67 23 108 81 147 37 24 53 28 113 28 56 0 80 -5 113 -24 50 -28 76 -23
71 16 -5 41 -65 67 -166 72 -73 3 -89 0 -137 -23 -98 -48 -150 -136 -143 -240
3 -33 9 -70 13 -81 4 -11 -23 12 -61 50 -38 39 -103 101 -144 138 l-74 67 12
47 c15 55 87 202 137 278 39 59 131 152 188 191 67 45 120 63 248 83 171 28
191 29 300 26 88 -3 104 -6 195 -46z m-2226 20 c78 -15 193 -74 256 -132 37
-34 65 -72 91 -125 35 -70 38 -83 38 -161 0 -48 -6 -108 -14 -134 -12 -41 -22
-53 -65 -81 -68 -45 -228 -196 -278 -264 l-40 -54 -74 4 -73 5 -116 109 -115
109 4 52 c11 135 110 246 266 299 76 26 266 27 327 2 44 -18 68 -16 77 7 16
43 -80 75 -229 75 -164 0 -280 -41 -382 -134 -63 -57 -102 -120 -118 -188
l-11 -50 -51 49 c-51 48 -51 49 -58 124 -17 184 86 319 267 349 63 11 76 10
134 -9 78 -25 90 -26 98 -5 10 25 -21 52 -77 69 -104 31 -225 12 -322 -49 -63
-41 -100 -84 -137 -161 -23 -49 -28 -74 -28 -132 0 -40 -4 -73 -8 -73 -5 0
-21 13 -37 29 -24 26 -27 35 -22 68 11 68 81 194 143 256 142 143 318 189 554
146z m2550 -67 c54 -22 81 -42 165 -126 134 -134 233 -251 258 -306 26 -59 28
-165 3 -240 -45 -137 -215 -422 -267 -447 -24 -12 -230 -35 -238 -27 -3 3 4
11 16 19 34 24 129 155 167 232 39 78 80 209 90 288 10 77 -23 187 -109 361
-78 157 -133 228 -195 254 -16 7 -30 16 -30 21 0 13 70 -2 140 -29z m-1713
-323 c46 -51 123 -102 191 -125 28 -10 52 -24 52 -31 0 -17 -3 -17 -95 7 -43
11 -102 20 -132 20 -49 0 -53 2 -53 24 0 12 -3 51 -6 85 -4 33 -4 61 0 61 3 0
23 -18 43 -41z m-2230 -157 c9 -6 13 -68 15 -220 3 -181 1 -210 -11 -195 -51
68 -69 175 -51 314 15 115 17 120 47 101z m2358 -68 c115 -28 159 -56 291
-186 153 -150 185 -204 192 -330 4 -61 1 -82 -9 -89 -8 -5 -78 -9 -157 -9
l-144 0 9 33 c14 57 8 139 -14 182 -32 61 -110 129 -179 155 -74 28 -209 37
-296 20 -105 -20 -182 -61 -259 -138 -64 -65 -124 -162 -142 -233 -6 -21 -10
-22 -68 -15 -34 3 -95 6 -135 6 -86 0 -85 -4 -49 108 34 108 84 181 209 303
116 113 149 133 291 174 160 45 324 52 460 19z m-2139 -61 l72 -45 7 -87 c9
-113 31 -222 60 -293 l23 -58 -23 0 c-58 0 -250 84 -260 113 -11 32 -24 290
-19 363 l7 83 31 -16 c17 -8 63 -36 102 -60z m294 -196 c99 -70 187 -137 397
-299 23 -18 42 -36 43 -40 0 -13 -435 18 -463 34 -23 12 -61 93 -81 173 -22
85 -35 215 -22 215 6 0 63 -38 126 -83z m1787 -42 c65 -19 109 -50 150 -103
27 -36 33 -52 33 -93 0 -27 -7 -65 -15 -84 l-14 -35 -363 2 c-313 3 -363 5
-366 18 -4 23 68 140 119 191 49 50 84 71 164 100 64 23 220 25 292 4z m-958
-135 c-13 -36 -15 -36 -40 -7 -26 31 -24 37 15 37 34 0 35 0 25 -30z m-1319
-466 c111 -39 217 -55 397 -61 157 -5 274 -2 853 28 102 5 438 14 748 20 689
13 1222 2 1673 -36 274 -24 319 -25 459 -15 159 11 238 25 335 59 l55 19 0
-26 c0 -15 -9 -81 -19 -147 -51 -311 -72 -491 -116 -997 -26 -295 -39 -367
-85 -463 -70 -146 -171 -214 -378 -256 -119 -24 -427 -26 -815 -4 -437 24
-1063 35 -1497 25 -539 -13 -987 -12 -1073 1 -231 34 -356 128 -422 317 -35
101 -60 257 -85 532 -25 284 -49 488 -95 799 -19 129 -35 237 -35 239 0 2 8 1
18 -3 9 -4 46 -18 82 -31z"/>
</g>
</svg>
