<svg xmlns="http://www.w3.org/2000/svg" viewBox="0 0 400 500" width="400" height="500">
  <rect width="100%" height="100%" fill="#fff"/>
  <g fill="none" stroke="#111" stroke-width="9" stroke-linecap="round" stroke-linejoin="round">
  <path d="M 200 66 C 218.7 66, 238.7 69, 256 76 C 273.3 83, 290.3 95.3, 304 108 C 317.7 120.7, 329.3 137.3, 338 152 C 346.7 166.7, 353 184.3, 356 196 C 359 207.7, 358.7 215, 356 222 C 353.3 229, 349.3 233.8, 340 238 C 330.7 242.2, 315 245, 300 247 C 285 249, 266.7 249.5, 250 250 C 233.3 250.5, 216.7 250, 200 250 C 183.3 250, 166.7 250.3, 150 250 C 133.3 249.7, 114.7 249.7, 100 248 C 85.3 246.3, 71.3 244, 62 240 C 52.7 236, 47 231.3, 44 224 C 41 216.7, 41 208, 44 196 C 47 184, 53.3 166.7, 62 152 C 70.7 137.3, 82.3 120.7, 96 108 C 109.7 95.3, 126.7 83, 144 76 C 161.3 69, 181.3 66, 200 66"/>
  <path d="M 51.3 233.8 C 59.4 231.8, 81.9 224.6, 100 222 C 118.1 219.4, 143.3 219.3, 160 218 C 176.7 216.7, 185 215.7, 200 214 C 215 212.3, 233.3 208.3, 250 208 C 266.7 207.7, 283.6 207.9, 300 212 C 316.4 216.1, 340.5 229.3, 348.6 232.8"/>
  <path d="M 170 250.1 C 169.5 256.8, 169.3 275.7, 167 290 C 164.7 304.3, 160 320.7, 156 336 C 152 351.3, 144.7 368.3, 143 382 C 141.3 395.7, 141.5 409.7, 146 418 C 150.5 426.3, 161 429.3, 170 432 C 179 434.7, 190 434, 200 434 C 210 434, 221 434.7, 230 432 C 239 429.3, 249.3 426.3, 254 418 C 258.7 409.7, 259 395.7, 258 382 C 257 368.3, 251.7 351.3, 248 336 C 244.3 320.7, 238.5 304.3, 236 290 C 233.5 275.7, 233.5 256.9, 233 250.2"/>
  <path d="M 122.4 101.8 C 127.3 100.3, 134.5 100.6, 138.9 102.6 C 143.3 104.5, 147.7 109.2, 149 113.5 C 150.3 117.8, 149.4 124.1, 146.8 128.2 C 144.3 132.3, 138.6 136.6, 133.6 138.2 C 128.7 139.7, 121.5 139.4, 117.1 137.4 C 112.7 135.5, 108.3 130.8, 107 126.5 C 105.7 122.2, 106.6 115.9, 109.2 111.8 C 111.7 107.7, 117.4 103.4, 122.4 101.8"/>
  <path d="M 194 130 C 199.4 130, 206.4 132.8, 210.3 136.4 C 214.1 140.1, 217 146.8, 217 152 C 217 157.2, 214.1 163.9, 210.3 167.6 C 206.4 171.2, 199.4 174, 194 174 C 188.6 174, 181.6 171.2, 177.7 167.6 C 173.9 163.9, 171 157.2, 171 152 C 171 146.8, 173.9 140.1, 177.7 136.4 C 181.6 132.8, 188.6 130, 194 130"/>
  <path d="M 280 135 C 284.7 135, 290.8 137.7, 294.1 141.2 C 297.5 144.7, 300 151.1, 300 156 C 300 160.9, 297.5 167.3, 294.1 170.8 C 290.8 174.3, 284.7 177, 280 177 C 275.3 177, 269.2 174.3, 265.9 170.8 C 262.5 167.3, 260 160.9, 260 156 C 260 151.1, 262.5 144.7, 265.9 141.2 C 269.2 137.7, 275.3 135, 280 135"/>
  <path d="M 238.2 77.2 C 243.1 77.9, 249.2 80.7, 252.3 83.7 C 255.4 86.7, 257.3 91.6, 256.8 95.1 C 256.2 98.6, 252.9 102.8, 249.1 104.7 C 245.3 106.7, 238.7 107.6, 233.8 106.8 C 228.9 106.1, 222.8 103.3, 219.7 100.3 C 216.6 97.3, 214.7 92.4, 215.2 88.9 C 215.8 85.4, 219.1 81.2, 222.9 79.3 C 226.7 77.3, 233.3 76.4, 238.2 77.2"/>
  <path d="M 176 75 C 178.8 75, 182.5 76.1, 184.5 77.6 C 186.5 79.1, 188 81.9, 188 84 C 188 86.1, 186.5 88.9, 184.5 90.4 C 182.5 91.9, 178.8 93, 176 93 C 173.2 93, 169.5 91.9, 167.5 90.4 C 165.5 88.9, 164 86.1, 164 84 C 164 81.9, 165.5 79.1, 167.5 77.6 C 169.5 76.1, 173.2 75, 176 75"/>
  <path d="M 114 167 C 117.5 167, 122.1 168.9, 124.6 171.4 C 127.1 173.9, 129 178.5, 129 182 C 129 185.5, 127.1 190.1, 124.6 192.6 C 122.1 195.1, 117.5 197, 114 197 C 110.5 197, 105.9 195.1, 103.4 192.6 C 100.9 190.1, 99 185.5, 99 182 C 99 178.5, 100.9 173.9, 103.4 171.4 C 105.9 168.9, 110.5 167, 114 167"/>
  <path d="M 97.1 222.5 C 96.1 224.4, 93 230.3, 90.9 234.2 C 88.8 238.1, 85.7 243.9, 84.7 245.9"/>
  <path d="M 130.2 219.5 C 129.5 222, 127.5 229.5, 126.1 234.5 C 124.7 239.5, 122.7 247, 122 249.5"/>
  <path d="M 270.3 208.1 C 271 211.5, 272.9 221.7, 274.1 228.5 C 275.4 235.3, 277.3 245.5, 277.9 248.9"/>
  <path d="M 306.7 214 C 307.4 216.6, 309.5 224.2, 310.9 229.4 C 312.3 234.5, 314.4 242.1, 315.1 244.7"/>
  <path d="M 152.2 424.7 C 149.9 425.3, 128.4 430.3, 124 431 C 119.6 431.7, 102.5 434.4, 100 433 C 97.5 431.6, 95.2 417.4, 94 414 C 92.8 410.6, 85.5 392.5, 86 392 C 86.5 391.5, 97.8 405.2, 100 408 C 102.2 410.8, 111 427, 112 426 C 113 425, 111.7 400.5, 112 396 C 112.3 391.5, 115 371.8, 116 372 C 117 372.2, 122.8 393.7, 124 398 C 125.2 402.3, 129.2 423.5, 130 424 C 130.8 424.5, 133 407, 134 404 C 135 401, 141.7 389.5, 142.4 388.2"/>
  <path d="M 247.7 424.7 C 250.1 425.2, 271.6 430.3, 276 431 C 280.4 431.7, 297.5 434.4, 300 433 C 302.5 431.6, 304.8 417.4, 306 414 C 307.2 410.6, 314.5 392.5, 314 392 C 313.5 391.5, 302.2 405.2, 300 408 C 297.8 410.8, 289 427, 288 426 C 287 425, 288.3 400.5, 288 396 C 287.7 391.5, 285 371.8, 284 372 C 283 372.2, 277.2 393.7, 276 398 C 274.8 402.3, 270.8 423.5, 270 424 C 269.2 424.5, 267 407, 266 404 C 265 401, 259 389.4, 258.3 388.1"/>
  </g>
</svg>
